<?xml version="1.0" encoding="UTF-8" standalone="no"?>
<svg width="86px" height="76px" viewBox="0 0 86 76" version="1.1" xmlns="http://www.w3.org/2000/svg" xmlns:xlink="http://www.w3.org/1999/xlink">
    <!-- Generator: Sketch 42 (36781) - http://www.bohemiancoding.com/sketch -->
    <title>noun_975722_cc</title>
    <desc>Created with Sketch.</desc>
    <defs></defs>
    <g id="Page-1" stroke="none" stroke-width="1" fill="none" fill-rule="evenodd">
        <g id="noun_975722_cc" transform="translate(0.000000, -1.000000)" fill-rule="nonzero" fill="#EC6707">
            <g id="Group">
                <g transform="translate(0.000000, 0.637820)" id="Shape">
                    <path d="M77.999998,0.3753 C82.397408,0.3753 85.999998,3.97789 85.999998,8.3753 L85.999998,48.3753 C85.999998,52.7727 82.397408,56.3753 77.999998,56.3753 L69.031248,56.3753 L70.843748,74.1565 C70.916448,74.9614 70.447528,75.788 69.719368,76.1386 C68.991218,76.4892 68.052638,76.3403 67.468748,75.7815 L47.999998,56.3753 L40.999998,56.3753 L40.999998,59.4378 C40.999998,62.7008 38.295788,65.3753 35.031248,65.3753 L19.999998,65.3753 L9.406252,75.7815 C8.806422,76.3756 7.811762,76.5233 7.065172,76.1293 C6.318572,75.7352 5.879292,74.8307 6.031252,74.0003 L7.562502,65.3753 L5.968752,65.3753 C2.704212,65.3753 1.99999999e-06,62.7008 1.99999999e-06,59.4378 L1.99999999e-06,40.3128 C1.99999999e-06,37.0498 2.704212,34.37532 5.968752,34.37532 L12.000002,34.37532 L12.000002,8.3753 C12.000002,3.97789 15.602592,0.3753 19.999998,0.3753 L77.999998,0.3753 Z M77.999998,4.3753 L19.999998,4.3753 C17.749388,4.3753 15.999998,6.12469 15.999998,8.3753 L15.999998,48.3753 C15.999998,50.6259 17.749388,52.3753 19.999998,52.3753 L48.812498,52.3753 C49.330258,52.3753 49.846598,52.5778 50.218748,52.9378 L66.312498,68.969 L64.812498,54.5628 C64.708298,53.455 65.699808,52.3705 66.812498,52.3753 L77.999998,52.3753 C80.250608,52.3753 81.999998,50.6259 81.999998,48.3753 L81.999998,8.3753 C81.999998,6.12469 80.250608,4.3753 77.999998,4.3753 Z M68.999998,21.3753 C72.842298,21.3753 75.999998,24.533 75.999998,28.37532 C75.999998,32.21762 72.842298,35.37532 68.999998,35.37532 C65.157698,35.37532 61.999998,32.21762 61.999998,28.37532 C61.999998,24.533 65.157698,21.3753 68.999998,21.3753 Z M48.968748,21.3753 C52.811048,21.3753 55.968748,24.533 55.968748,28.37532 C55.968748,32.21762 52.811048,35.37532 48.968748,35.37532 C45.126448,35.37532 41.968748,32.21762 41.968748,28.37532 C41.968748,24.533 45.126448,21.3753 48.968748,21.3753 Z M28.999998,21.3753 C32.842298,21.3753 35.999998,24.533 35.999998,28.37532 C35.999998,32.21762 32.842298,35.37532 28.999998,35.37532 C25.157698,35.37532 21.999998,32.21762 21.999998,28.37532 C21.999998,24.533 25.157698,21.3753 28.999998,21.3753 Z M68.999998,25.37532 C67.319458,25.37532 65.999998,26.69472 65.999998,28.37532 C65.999998,30.05582 67.319458,31.37532 68.999998,31.37532 C70.680538,31.37532 71.999998,30.05582 71.999998,28.37532 C71.999998,26.69472 70.680538,25.37532 68.999998,25.37532 Z M48.968748,25.37532 C47.288208,25.37532 45.968748,26.69472 45.968748,28.37532 C45.968748,30.05582 47.288208,31.37532 48.968748,31.37532 C50.649288,31.37532 51.968748,30.05582 51.968748,28.37532 C51.968748,26.69472 50.649288,25.37532 48.968748,25.37532 Z M28.999998,25.37532 C27.319458,25.37532 25.999998,26.69472 25.999998,28.37532 C25.999998,30.05582 27.319458,31.37532 28.999998,31.37532 C30.680538,31.37532 31.999998,30.05582 31.999998,28.37532 C31.999998,26.69472 30.680538,25.37532 28.999998,25.37532 Z M12.000002,38.3753 L5.968752,38.3753 C4.840872,38.3753 4.000002,39.2202 4.000002,40.3128 L4.000002,59.4378 C4.000002,60.5304 4.840872,61.3753 5.968752,61.3753 L9.937502,61.3753 C11.099312,61.3763 12.105802,62.5745 11.906252,63.719 L11.062502,68.5628 L17.781248,61.9378 C18.153398,61.5778 18.669738,61.3713 19.187498,61.3753 L35.031248,61.3753 C36.159148,61.3753 36.999998,60.5304 36.999998,59.4378 L36.999998,56.3753 L19.999998,56.3753 C15.602592,56.3753 12.000002,52.7727 12.000002,48.3753 L12.000002,38.3753 Z"></path>
                </g>
            </g>
        </g>
    </g>
</svg>