<?xml version="1.0" encoding="UTF-8" standalone="no"?>
<svg width="91px" height="80px" viewBox="0 0 91 80" version="1.1" xmlns="http://www.w3.org/2000/svg" xmlns:xlink="http://www.w3.org/1999/xlink">
    <!-- Generator: Sketch 42 (36781) - http://www.bohemiancoding.com/sketch -->
    <title>noun_778862_cc</title>
    <desc>Created with Sketch.</desc>
    <defs></defs>
    <g id="Page-1" stroke="none" stroke-width="1" fill="none" fill-rule="evenodd">
        <g id="noun_778862_cc" fill-rule="nonzero" fill="#EC6707">
            <g id="Group">
                <g id="Shape">
                    <g>
                        <path d="M38.6,44.7 C32.6,44.7 27,42.4 22.9,38.4 C18.8,34.3 16.6,28.7 16.6,22.7 C16.6,16.7 18.9,11.1 22.9,7 C27,2.9 32.6,0.6 38.6,0.6 C44.6,0.6 50.2,2.9 54.3,7 C58.4,11.1 60.7,16.7 60.7,22.7 C60.7,28.7 58.4,34.3 54.3,38.4 C50.1,42.4 44.6,44.7 38.6,44.7 Z M38.55,4.6 C28.3253165,4.6 20.6,12.3253165 20.6,22.55 C20.6,32.7746835 28.3253165,40.5 38.55,40.5 C48.7746835,40.5 56.5,32.7746835 56.5,22.55 C56.3863924,12.3253165 48.7746835,4.6 38.55,4.6 Z"></path>
                        <path d="M62.2680952,63.3654927 C69.2471429,66.8082819 73.5,71.0161353 73.5,74.4589245 C73.5,74.4589245 11,76.0488237 5.23281675,74.5244176 C5.0355391,74.4722723 5,73.9289581 5,73.9289581 C5,73.9289581 5.56333333,71.3986675 7.19904762,69.6135175 C9.16190476,67.4458354 12.3242857,65.2781534 16.1409524,63.3654927 C24.1014286,59.28515 33.697619,57.5 39.15,57.5 C44.602381,57.5 54.1985714,59.28515 62.2680952,63.3654927 Z M0.8,73 C0.8,76.5 3.6,79.3 7.1,79.3 L70.1,79.3 C73.6,79.3 76.4,76.5 76.4,73 C76.4,60.5 51.2,53.5 38.6,53.5 C26,53.5 0.8,60.5 0.8,73 Z"></path>
                    </g>
                    <path d="M88.1,38 L80,38 L80,29.5 C80,28 78.7,27 77.2,27 L76.5,27 C75,27 74,28 74,29.5 L74,38 L65.6,38 C64.1,38 63,38.8 63,40.4 L63,41.1 C63,42.6 64.1,44 65.6,44 L74,44 L74,52 C74,53.5 75,55 76.5,55 L77.2,55 C78.7,55 80,53.5 80,52 L80,44 L88.1,44 C89.6,44 91,42.6 91,41.1 L91,40.4 C91,38.8 89.6,38 88.1,38 Z"></path>
                </g>
            </g>
        </g>
    </g>
</svg>