<?xml version="1.0" encoding="UTF-8" standalone="no"?>
<svg width="54px" height="98px" viewBox="0 0 54 98" version="1.1" xmlns="http://www.w3.org/2000/svg" xmlns:xlink="http://www.w3.org/1999/xlink">
    <!-- Generator: Sketch 42 (36781) - http://www.bohemiancoding.com/sketch -->
    <title>noun_735417_cc</title>
    <desc>Created with Sketch.</desc>
    <defs></defs>
    <g id="Page-1" stroke="none" stroke-width="1" fill="none" fill-rule="evenodd">
        <g id="noun_735417_cc" fill-rule="nonzero" fill="#EC6707">
            <g id="Group">
                <path d="M26.998,35.693 C26.169,35.693 25.498,36.364 25.498,37.193 L25.498,57.186 L18.256,49.943 C17.67,49.357 16.721,49.357 16.135,49.943 C15.549,50.529 15.549,51.478 16.135,52.064 L25.927,61.858 C26.069,62.003 26.24,62.119 26.431,62.197 C26.436,62.199 26.442,62.2 26.447,62.202 C26.618,62.269 26.803,62.309 26.998,62.309 L26.999,62.309 L26.999,62.309 L27.001,62.309 C27.192,62.308 27.373,62.269 27.541,62.204 C27.551,62.2 27.562,62.199 27.571,62.195 C27.752,62.12 27.914,62.011 28.05,61.876 C28.053,61.874 28.056,61.873 28.06,61.87 L37.865,52.066 C38.451,51.48 38.451,50.531 37.865,49.945 C37.279,49.359 36.33,49.359 35.744,49.945 L28.498,57.19 L28.498,37.193 C28.498,36.365 27.826,35.693 26.998,35.693 Z M51.398,23.524 L51.398,7.917 C51.398,3.781 48.033,0.417 43.898,0.417 L8.099,0.417 C3.963,0.417 0.599,3.781 0.599,7.917 L0.599,16.917 C0.599,17.746 1.27,18.417 2.099,18.417 L48.398,18.417 L48.398,73.083 C48.398,73.911 49.07,74.583 49.898,74.583 C50.726,74.583 51.398,73.911 51.398,73.083 L51.398,34.986 C52.539,34.755 53.4,33.744 53.4,32.536 L53.4,25.973 C53.4,24.766 52.539,23.755 51.398,23.524 Z M48.398,15.417 L3.599,15.417 L3.599,7.917 C3.599,5.436 5.618,3.417 8.099,3.417 L43.898,3.417 C46.378,3.417 48.398,5.436 48.398,7.917 L48.398,15.417 Z M25.999,92.733 C28.298,92.733 30.168,90.862 30.168,88.563 C30.168,86.264 28.298,84.393 25.999,84.393 C23.7,84.393 21.829,86.264 21.829,88.563 C21.829,90.862 23.699,92.733 25.999,92.733 Z M25.999,87.394 C26.644,87.394 27.169,87.918 27.169,88.564 C27.169,89.21 26.644,89.734 25.999,89.734 C25.354,89.734 24.829,89.21 24.829,88.564 C24.829,87.918 25.354,87.394 25.999,87.394 Z M49.898,79.583 L3.599,79.583 L3.599,24.917 C3.599,24.088 2.928,23.417 2.099,23.417 C1.27,23.417 0.599,24.088 0.599,24.917 L0.599,90.083 C0.599,94.219 3.963,97.583 8.099,97.583 L43.898,97.583 C48.033,97.583 51.398,94.219 51.398,90.083 L51.398,81.083 C51.398,80.255 50.727,79.583 49.898,79.583 Z M48.398,90.083 C48.398,92.564 46.378,94.583 43.898,94.583 L8.099,94.583 C5.618,94.583 3.599,92.564 3.599,90.083 L3.599,82.583 L48.398,82.583 L48.398,90.083 Z" id="Shape"></path>
            </g>
        </g>
    </g>
</svg>